solid Caixa Med Temp Umid 2
facet normal 1.0 3.2045073665317024e-17 5.819973082429668e-34
  outer loop
    vertex -47.81137476049496 54.0 5.618775089437667
    vertex -47.81137476049496 32.00000000000001 43.61877508943766
    vertex -47.81137476049496 32.00000000000001 5.618775089437667
  endloop
endfacet
facet normal 1.0 3.2045073665317024e-17 5.819973082429668e-34
  outer loop
    vertex -47.81137476049496 32.00000000000001 43.61877508943766
    vertex -47.81137476049496 54.0 5.618775089437667
    vertex -47.81137476049496 54.0 43.61877508943766
  endloop
endfacet
facet normal -0.0 -0.0 -1.0
  outer loop
    vertex 50.18862523950504 16.999999999999996 39.61877508943767
    vertex 45.18862523950505 3.999999999999999 39.61877508943767
    vertex 45.18862523950505 16.999999999999996 39.61877508943767
  endloop
endfacet
facet normal -0.0 -0.0 -1.0
  outer loop
    vertex 45.18862523950505 3.999999999999999 39.61877508943767
    vertex 50.18862523950504 16.999999999999996 39.61877508943767
    vertex 50.18862523950504 3.999999999999999 39.61877508943767
  endloop
endfacet
facet normal 0.0 -1.0 0.0
  outer loop
    vertex 48.18862523950504 54.0 43.61877508943766
    vertex -47.81137476049496 54.0 5.618775089437667
    vertex 48.18862523950504 54.0 5.618775089437667
  endloop
endfacet
facet normal 0.0 -1.0 0.0
  outer loop
    vertex -47.81137476049496 54.0 5.618775089437667
    vertex 48.18862523950504 54.0 43.61877508943766
    vertex -47.81137476049496 54.0 43.61877508943766
  endloop
endfacet
facet normal 0.0 -1.0 0.0
  outer loop
    vertex 50.18862523950504 16.999999999999996 39.61877508943767
    vertex 45.18862523950505 16.999999999999996 23.61877508943767
    vertex 50.18862523950504 16.999999999999996 23.61877508943767
  endloop
endfacet
facet normal 0.0 -1.0 0.0
  outer loop
    vertex 45.18862523950505 16.999999999999996 23.61877508943767
    vertex 50.18862523950504 16.999999999999996 39.61877508943767
    vertex 45.18862523950505 16.999999999999996 39.61877508943767
  endloop
endfacet
facet normal -1.0 0.0 0.0
  outer loop
    vertex 48.18862523950504 24.0 43.61877508943766
    vertex 48.18862523950504 1.9999999999999978 41.61877508943767
    vertex 48.18862523950504 1.9999999999999978 43.61877508943766
  endloop
endfacet
facet normal -1.0 0.0 0.0
  outer loop
    vertex 48.18862523950504 1.9999999999999978 41.61877508943767
    vertex 48.18862523950504 24.0 43.61877508943766
    vertex 48.18862523950504 18.999999999999993 41.61877508943767
  endloop
endfacet
facet normal -1.0 0.0 0.0
  outer loop
    vertex 48.18862523950504 18.999999999999993 41.61877508943767
    vertex 48.18862523950504 24.0 43.61877508943766
    vertex 48.18862523950504 18.999999999999996 21.61877508943767
  endloop
endfacet
facet normal -1.0 0.0 0.0
  outer loop
    vertex 48.18862523950504 18.999999999999996 21.61877508943767
    vertex 48.18862523950504 1.9999999999999978 5.618775089437667
    vertex 48.18862523950504 1.9999999999999978 21.61877508943767
  endloop
endfacet
facet normal -1.0 0.0 0.0
  outer loop
    vertex 48.18862523950504 1.9999999999999978 5.618775089437667
    vertex 48.18862523950504 18.999999999999996 21.61877508943767
    vertex 48.18862523950504 24.0 5.618775089437667
  endloop
endfacet
facet normal -1.0 0.0 0.0
  outer loop
    vertex 48.18862523950504 24.0 5.618775089437667
    vertex 48.18862523950504 18.999999999999996 21.61877508943767
    vertex 48.18862523950504 24.0 43.61877508943766
  endloop
endfacet
facet normal 3.6718313574842425e-18 1.0 -6.186167228452817e-34
  outer loop
    vertex -47.81137476049496 1.999999999999998 43.61877508943766
    vertex 48.18862523950504 1.9999999999999978 5.618775089437667
    vertex -47.81137476049496 1.999999999999998 5.618775089437667
  endloop
endfacet
facet normal 3.6718313574842425e-18 1.0 -6.186167228452817e-34
  outer loop
    vertex 48.18862523950504 1.9999999999999978 5.618775089437667
    vertex -47.81137476049496 1.999999999999998 43.61877508943766
    vertex 45.18862523950505 1.9999999999999978 21.61877508943767
  endloop
endfacet
facet normal 3.6718313574842425e-18 1.0 -6.186167228452817e-34
  outer loop
    vertex 45.18862523950505 1.9999999999999978 21.61877508943767
    vertex -47.81137476049496 1.999999999999998 43.61877508943766
    vertex 45.18862523950505 1.9999999999999978 41.61877508943767
  endloop
endfacet
facet normal 3.6718313574842425e-18 1.0 -6.186167228452817e-34
  outer loop
    vertex 45.18862523950505 1.9999999999999978 41.61877508943767
    vertex -47.81137476049496 1.999999999999998 43.61877508943766
    vertex 48.18862523950504 1.9999999999999978 41.61877508943767
  endloop
endfacet
facet normal 3.6718313574842425e-18 1.0 -6.186167228452817e-34
  outer loop
    vertex 48.18862523950504 1.9999999999999978 41.61877508943767
    vertex -47.81137476049496 1.999999999999998 43.61877508943766
    vertex 48.18862523950504 1.9999999999999978 43.61877508943766
  endloop
endfacet
facet normal 3.6718313574842425e-18 1.0 -6.186167228452817e-34
  outer loop
    vertex 48.18862523950504 1.9999999999999978 21.61877508943767
    vertex 48.18862523950504 1.9999999999999978 5.618775089437667
    vertex 45.18862523950505 1.9999999999999978 21.61877508943767
  endloop
endfacet
facet normal 0.0 0.0 1.0
  outer loop
    vertex -49.81137476049496 0.0 43.61877508943766
    vertex -47.81137476049496 1.999999999999998 43.61877508943766
    vertex -49.81137476049496 56.0 43.61877508943766
  endloop
endfacet
facet normal 0.0 0.0 1.0
  outer loop
    vertex -47.81137476049496 1.999999999999998 43.61877508943766
    vertex -49.81137476049496 0.0 43.61877508943766
    vertex 50.18862523950504 0.0 43.61877508943766
  endloop
endfacet
facet normal 0.0 0.0 1.0
  outer loop
    vertex -47.81137476049496 1.999999999999998 43.61877508943766
    vertex 50.18862523950504 0.0 43.61877508943766
    vertex 48.18862523950504 1.9999999999999978 43.61877508943766
  endloop
endfacet
facet normal 0.0 0.0 1.0
  outer loop
    vertex 48.18862523950504 1.9999999999999978 43.61877508943766
    vertex 50.18862523950504 0.0 43.61877508943766
    vertex 48.18862523950504 24.0 43.61877508943766
  endloop
endfacet
facet normal 0.0 0.0 1.0
  outer loop
    vertex 48.18862523950504 24.0 43.61877508943766
    vertex 50.18862523950504 0.0 43.61877508943766
    vertex 48.18862523950504 32.00000000000001 43.61877508943766
  endloop
endfacet
facet normal 0.0 0.0 1.0
  outer loop
    vertex 48.18862523950504 32.00000000000001 43.61877508943766
    vertex 50.18862523950504 0.0 43.61877508943766
    vertex 48.18862523950504 54.0 43.61877508943766
  endloop
endfacet
facet normal 0.0 0.0 1.0
  outer loop
    vertex -49.81137476049496 56.0 43.61877508943766
    vertex -47.81137476049496 54.0 43.61877508943766
    vertex 50.18862523950504 56.0 43.61877508943766
  endloop
endfacet
facet normal 0.0 0.0 1.0
  outer loop
    vertex -47.81137476049496 54.0 43.61877508943766
    vertex -49.81137476049496 56.0 43.61877508943766
    vertex -47.81137476049496 1.999999999999998 43.61877508943766
  endloop
endfacet
facet normal 0.0 0.0 1.0
  outer loop
    vertex -47.81137476049496 54.0 43.61877508943766
    vertex -47.81137476049496 1.999999999999998 43.61877508943766
    vertex -47.81137476049496 24.0 43.61877508943766
  endloop
endfacet
facet normal 0.0 0.0 1.0
  outer loop
    vertex -47.81137476049496 54.0 43.61877508943766
    vertex -47.81137476049496 24.0 43.61877508943766
    vertex -47.81137476049496 32.00000000000001 43.61877508943766
  endloop
endfacet
facet normal 0.0 0.0 1.0
  outer loop
    vertex 50.18862523950504 56.0 43.61877508943766
    vertex -47.81137476049496 54.0 43.61877508943766
    vertex 48.18862523950504 54.0 43.61877508943766
  endloop
endfacet
facet normal 0.0 0.0 1.0
  outer loop
    vertex 50.18862523950504 56.0 43.61877508943766
    vertex 48.18862523950504 54.0 43.61877508943766
    vertex 50.18862523950504 0.0 43.61877508943766
  endloop
endfacet
facet normal -1.0 0.0 0.0
  outer loop
    vertex -49.81137476049496 56.0 43.61877508943766
    vertex -49.81137476049496 0.0 3.618775089437668
    vertex -49.81137476049496 0.0 43.61877508943766
  endloop
endfacet
facet normal -1.0 0.0 0.0
  outer loop
    vertex -49.81137476049496 0.0 3.618775089437668
    vertex -49.81137476049496 56.0 43.61877508943766
    vertex -49.81137476049496 56.0 3.618775089437668
  endloop
endfacet
facet normal 0.0 0.0 1.0
  outer loop
    vertex 50.18862523950504 3.999999999999999 23.61877508943767
    vertex 45.18862523950505 16.999999999999996 23.61877508943767
    vertex 45.18862523950505 3.999999999999999 23.61877508943767
  endloop
endfacet
facet normal 0.0 0.0 1.0
  outer loop
    vertex 45.18862523950505 16.999999999999996 23.61877508943767
    vertex 50.18862523950504 3.999999999999999 23.61877508943767
    vertex 50.18862523950504 16.999999999999996 23.61877508943767
  endloop
endfacet
facet normal -1.0 -0.0 -0.0
  outer loop
    vertex 48.18862523950504 32.00000000000001 45.61877508943767
    vertex 48.18862523950504 24.0 43.61877508943766
    vertex 48.18862523950504 24.0 45.61877508943767
  endloop
endfacet
facet normal -1.0 -0.0 -0.0
  outer loop
    vertex 48.18862523950504 24.0 43.61877508943766
    vertex 48.18862523950504 32.00000000000001 45.61877508943767
    vertex 48.18862523950504 32.00000000000001 43.61877508943766
  endloop
endfacet
facet normal 0.0 0.0 -1.0
  outer loop
    vertex 50.18862523950504 56.0 3.618775089437668
    vertex -49.81137476049496 0.0 3.618775089437668
    vertex -49.81137476049496 56.0 3.618775089437668
  endloop
endfacet
facet normal 0.0 0.0 -1.0
  outer loop
    vertex -49.81137476049496 0.0 3.618775089437668
    vertex 50.18862523950504 56.0 3.618775089437668
    vertex 50.18862523950504 0.0 3.618775089437668
  endloop
endfacet
facet normal 0.0 0.0 1.0
  outer loop
    vertex 50.18862523950504 39.99999999999999 9.618775089437667
    vertex 48.18862523950504 51.0 9.618775089437667
    vertex 48.18862523950504 39.99999999999999 9.618775089437667
  endloop
endfacet
facet normal 0.0 0.0 1.0
  outer loop
    vertex 48.18862523950504 51.0 9.618775089437667
    vertex 50.18862523950504 39.99999999999999 9.618775089437667
    vertex 50.18862523950504 51.0 9.618775089437667
  endloop
endfacet
facet normal 1.0 0.0 0.0
  outer loop
    vertex 50.18862523950504 0.0 3.618775089437668
    vertex 50.18862523950504 3.999999999999999 23.61877508943767
    vertex 50.18862523950504 0.0 43.61877508943766
  endloop
endfacet
facet normal 1.0 0.0 0.0
  outer loop
    vertex 50.18862523950504 3.999999999999999 23.61877508943767
    vertex 50.18862523950504 0.0 3.618775089437668
    vertex 50.18862523950504 39.99999999999999 9.618775089437667
  endloop
endfacet
facet normal 1.0 0.0 0.0
  outer loop
    vertex 50.18862523950504 39.99999999999999 9.618775089437667
    vertex 50.18862523950504 0.0 3.618775089437668
    vertex 50.18862523950504 56.0 3.618775089437668
  endloop
endfacet
facet normal 1.0 0.0 0.0
  outer loop
    vertex 50.18862523950504 3.999999999999999 23.61877508943767
    vertex 50.18862523950504 39.99999999999999 9.618775089437667
    vertex 50.18862523950504 16.999999999999996 23.61877508943767
  endloop
endfacet
facet normal 1.0 0.0 0.0
  outer loop
    vertex 50.18862523950504 16.999999999999996 23.61877508943767
    vertex 50.18862523950504 39.99999999999999 9.618775089437667
    vertex 50.18862523950504 16.999999999999996 39.61877508943767
  endloop
endfacet
facet normal 1.0 0.0 0.0
  outer loop
    vertex 50.18862523950504 39.99999999999999 9.618775089437667
    vertex 50.18862523950504 56.0 3.618775089437668
    vertex 50.18862523950504 51.0 9.618775089437667
  endloop
endfacet
facet normal 1.0 0.0 0.0
  outer loop
    vertex 50.18862523950504 51.0 9.618775089437667
    vertex 50.18862523950504 56.0 3.618775089437668
    vertex 50.18862523950504 51.0 17.61877508943767
  endloop
endfacet
facet normal 1.0 0.0 0.0
  outer loop
    vertex 50.18862523950504 0.0 43.61877508943766
    vertex 50.18862523950504 3.999999999999999 39.61877508943767
    vertex 50.18862523950504 56.0 43.61877508943766
  endloop
endfacet
facet normal 1.0 0.0 0.0
  outer loop
    vertex 50.18862523950504 3.999999999999999 39.61877508943767
    vertex 50.18862523950504 0.0 43.61877508943766
    vertex 50.18862523950504 3.999999999999999 23.61877508943767
  endloop
endfacet
facet normal 1.0 0.0 0.0
  outer loop
    vertex 50.18862523950504 56.0 43.61877508943766
    vertex 50.18862523950504 3.999999999999999 39.61877508943767
    vertex 50.18862523950504 16.999999999999996 39.61877508943767
  endloop
endfacet
facet normal 1.0 0.0 0.0
  outer loop
    vertex 50.18862523950504 56.0 43.61877508943766
    vertex 50.18862523950504 16.999999999999996 39.61877508943767
    vertex 50.18862523950504 39.99999999999999 17.61877508943767
  endloop
endfacet
facet normal 1.0 0.0 0.0
  outer loop
    vertex 50.18862523950504 39.99999999999999 17.61877508943767
    vertex 50.18862523950504 16.999999999999996 39.61877508943767
    vertex 50.18862523950504 39.99999999999999 9.618775089437667
  endloop
endfacet
facet normal 1.0 0.0 0.0
  outer loop
    vertex 50.18862523950504 56.0 43.61877508943766
    vertex 50.18862523950504 39.99999999999999 17.61877508943767
    vertex 50.18862523950504 51.0 17.61877508943767
  endloop
endfacet
facet normal 1.0 0.0 0.0
  outer loop
    vertex 50.18862523950504 56.0 43.61877508943766
    vertex 50.18862523950504 51.0 17.61877508943767
    vertex 50.18862523950504 56.0 3.618775089437668
  endloop
endfacet
facet normal 0.0 0.0 -1.0
  outer loop
    vertex 40.18862523950505 30.0 45.61877508943767
    vertex 43.548775819763584 28.768500305827207 45.61877508943767
    vertex 40.18862523950505 26.000000000000007 45.61877508943767
  endloop
endfacet
facet normal 0.0 0.0 -1.0
  outer loop
    vertex 43.548775819763584 28.768500305827207 45.61877508943767
    vertex 40.18862523950505 30.0 45.61877508943767
    vertex 48.18862523950504 32.00000000000001 45.61877508943767
  endloop
endfacet
facet normal 0.0 0.0 -1.0
  outer loop
    vertex 40.18862523950505 26.000000000000007 45.61877508943767
    vertex 43.548775819763584 28.768500305827207 45.61877508943767
    vertex 43.37167564472549 28.57670907708266 45.61877508943767
  endloop
endfacet
facet normal 0.0 0.0 -1.0
  outer loop
    vertex 40.18862523950505 26.000000000000007 45.61877508943767
    vertex 43.37167564472549 28.57670907708266 45.61877508943767
    vertex 43.2502492344986 28.345616077791743 45.61877508943767
  endloop
endfacet
facet normal 0.0 0.0 -1.0
  outer loop
    vertex 40.18862523950505 26.000000000000007 45.61877508943767
    vertex 43.2502492344986 28.345616077791743 45.61877508943767
    vertex 43.19277159827322 28.090969913956894 45.61877508943767
  endloop
endfacet
facet normal 0.0 0.0 -1.0
  outer loop
    vertex 43.548775819763584 28.768500305827207 45.61877508943767
    vertex 48.18862523950504 32.00000000000001 45.61877508943767
    vertex 43.76948067535588 28.907919508736434 45.61877508943767
  endloop
endfacet
facet normal 0.0 0.0 -1.0
  outer loop
    vertex 43.76948067535588 28.907919508736434 45.61877508943767
    vertex 48.18862523950504 32.00000000000001 45.61877508943767
    vertex 44.01874954032581 28.985465497533205 45.61877508943767
  endloop
endfacet
facet normal 0.0 0.0 -1.0
  outer loop
    vertex 44.01874954032581 28.985465497533205 45.61877508943767
    vertex 48.18862523950504 32.00000000000001 45.61877508943767
    vertex 44.279595153461926 28.995853641231818 45.61877508943767
  endloop
endfacet
facet normal 0.0 0.0 -1.0
  outer loop
    vertex 44.279595153461926 28.995853641231818 45.61877508943767
    vertex 48.18862523950504 32.00000000000001 45.61877508943767
    vertex 44.534241317296775 28.93837600500644 45.61877508943767
  endloop
endfacet
facet normal 0.0 0.0 -1.0
  outer loop
    vertex 44.534241317296775 28.93837600500644 45.61877508943767
    vertex 48.18862523950504 32.00000000000001 45.61877508943767
    vertex 44.765334316587705 28.816949594779544 45.61877508943767
  endloop
endfacet
facet normal 0.0 0.0 -1.0
  outer loop
    vertex 44.765334316587705 28.816949594779544 45.61877508943767
    vertex 48.18862523950504 32.00000000000001 45.61877508943767
    vertex 44.95712554533225 28.63984941974146 45.61877508943767
  endloop
endfacet
facet normal 0.0 0.0 -1.0
  outer loop
    vertex 44.95712554533225 28.63984941974146 45.61877508943767
    vertex 48.18862523950504 32.00000000000001 45.61877508943767
    vertex 45.09654474824148 28.419144564149157 45.61877508943767
  endloop
endfacet
facet normal 0.0 0.0 -1.0
  outer loop
    vertex 45.09654474824148 28.419144564149157 45.61877508943767
    vertex 48.18862523950504 32.00000000000001 45.61877508943767
    vertex 45.17409073703824 28.169875699179233 45.61877508943767
  endloop
endfacet
facet normal 0.0 0.0 -1.0
  outer loop
    vertex 45.17409073703824 28.169875699179233 45.61877508943767
    vertex 48.18862523950504 32.00000000000001 45.61877508943767
    vertex 45.18447888073686 27.90903008604311 45.61877508943767
  endloop
endfacet
facet normal 0.0 0.0 -1.0
  outer loop
    vertex 40.18862523950505 26.000000000000007 45.61877508943767
    vertex 43.61191616242238 27.183050405220452 45.61877508943767
    vertex 48.18862523950504 24.0 45.61877508943767
  endloop
endfacet
facet normal 0.0 0.0 -1.0
  outer loop
    vertex 43.61191616242238 27.183050405220452 45.61877508943767
    vertex 40.18862523950505 26.000000000000007 45.61877508943767
    vertex 43.42012493367783 27.360150580258537 45.61877508943767
  endloop
endfacet
facet normal 0.0 0.0 -1.0
  outer loop
    vertex 43.42012493367783 27.360150580258537 45.61877508943767
    vertex 40.18862523950505 26.000000000000007 45.61877508943767
    vertex 43.28070573076861 27.580855435850843 45.61877508943767
  endloop
endfacet
facet normal 0.0 0.0 -1.0
  outer loop
    vertex 43.28070573076861 27.580855435850843 45.61877508943767
    vertex 40.18862523950505 26.000000000000007 45.61877508943767
    vertex 43.20315974197184 27.830124300820767 45.61877508943767
  endloop
endfacet
facet normal 0.0 0.0 -1.0
  outer loop
    vertex 43.20315974197184 27.830124300820767 45.61877508943767
    vertex 40.18862523950505 26.000000000000007 45.61877508943767
    vertex 43.19277159827322 28.090969913956894 45.61877508943767
  endloop
endfacet
facet normal 0.0 0.0 -1.0
  outer loop
    vertex 48.18862523950504 24.0 45.61877508943767
    vertex 43.61191616242238 27.183050405220452 45.61877508943767
    vertex 43.843009161713304 27.061623994993557 45.61877508943767
  endloop
endfacet
facet normal 0.0 0.0 -1.0
  outer loop
    vertex 48.18862523950504 24.0 45.61877508943767
    vertex 43.843009161713304 27.061623994993557 45.61877508943767
    vertex 44.09765532554815 27.004146358768182 45.61877508943767
  endloop
endfacet
facet normal 0.0 0.0 -1.0
  outer loop
    vertex 48.18862523950504 24.0 45.61877508943767
    vertex 44.09765532554815 27.004146358768182 45.61877508943767
    vertex 44.35850093868427 27.014534502466795 45.61877508943767
  endloop
endfacet
facet normal 0.0 0.0 -1.0
  outer loop
    vertex 48.18862523950504 24.0 45.61877508943767
    vertex 44.35850093868427 27.014534502466795 45.61877508943767
    vertex 44.6077698036542 27.092080491263566 45.61877508943767
  endloop
endfacet
facet normal 0.0 0.0 -1.0
  outer loop
    vertex 48.18862523950504 24.0 45.61877508943767
    vertex 44.6077698036542 27.092080491263566 45.61877508943767
    vertex 44.828474659246496 27.23149969417279 45.61877508943767
  endloop
endfacet
facet normal 0.0 0.0 -1.0
  outer loop
    vertex 48.18862523950504 24.0 45.61877508943767
    vertex 44.828474659246496 27.23149969417279 45.61877508943767
    vertex 45.00557483428459 27.42329092291734 45.61877508943767
  endloop
endfacet
facet normal 0.0 0.0 -1.0
  outer loop
    vertex 48.18862523950504 24.0 45.61877508943767
    vertex 45.00557483428459 27.42329092291734 45.61877508943767
    vertex 45.12700124451148 27.654383922208257 45.61877508943767
  endloop
endfacet
facet normal 0.0 0.0 -1.0
  outer loop
    vertex 48.18862523950504 24.0 45.61877508943767
    vertex 45.12700124451148 27.654383922208257 45.61877508943767
    vertex 45.18447888073686 27.90903008604311 45.61877508943767
  endloop
endfacet
facet normal 0.0 0.0 -1.0
  outer loop
    vertex 48.18862523950504 24.0 45.61877508943767
    vertex 45.18447888073686 27.90903008604311 45.61877508943767
    vertex 48.18862523950504 32.00000000000001 45.61877508943767
  endloop
endfacet
facet normal 0.0 1.0 0.0
  outer loop
    vertex 45.18862523950505 3.999999999999999 39.61877508943767
    vertex 50.18862523950504 3.999999999999999 23.61877508943767
    vertex 45.18862523950505 3.999999999999999 23.61877508943767
  endloop
endfacet
facet normal 0.0 1.0 0.0
  outer loop
    vertex 50.18862523950504 3.999999999999999 23.61877508943767
    vertex 45.18862523950505 3.999999999999999 39.61877508943767
    vertex 50.18862523950504 3.999999999999999 39.61877508943767
  endloop
endfacet
facet normal -0.899291174750909 -0.4373504121584088 -0.0
  outer loop
    vertex -44.76005805854547 27.683772233983163 45.61877508943766
    vertex -44.645886690615654 27.449010128508498 15.61877508943767
    vertex -44.645886690615654 27.449010128508498 45.61877508943766
  endloop
endfacet
facet normal -0.899291174750909 -0.4373504121584088 -0.0
  outer loop
    vertex -44.645886690615654 27.449010128508498 15.61877508943767
    vertex -44.76005805854547 27.683772233983163 45.61877508943766
    vertex -44.76005805854547 27.683772233983163 15.61877508943767
  endloop
endfacet
facet normal 0.9818431870957726 0.18969437512381876 0.0
  outer loop
    vertex -42.86269146244444 28.31622776601684 15.61877508943767
    vertex -42.81317129350349 28.059915260879215 45.61877508943766
    vertex -42.81317129350349 28.059915260879215 15.61877508943767
  endloop
endfacet
facet normal 0.9818431870957726 0.18969437512381876 0.0
  outer loop
    vertex -42.81317129350349 28.059915260879215 45.61877508943766
    vertex -42.86269146244444 28.31622776601684 15.61877508943767
    vertex -42.86269146244444 28.31622776601684 45.61877508943766
  endloop
endfacet
facet normal 0.9451483301195251 -0.32664144573564613 0.0
  outer loop
    vertex -42.83167704122879 27.799519629727325 15.61877508943767
    vertex -42.916947569495036 27.55278640450004 45.61877508943766
    vertex -42.916947569495036 27.55278640450004 15.61877508943767
  endloop
endfacet
facet normal 0.9451483301195251 -0.32664144573564613 0.0
  outer loop
    vertex -42.916947569495036 27.55278640450004 45.61877508943766
    vertex -42.83167704122879 27.799519629727325 15.61877508943767
    vertex -42.83167704122879 27.799519629727325 45.61877508943766
  endloop
endfacet
facet normal 0.9974842088126427 -0.07088902009067705 0.0
  outer loop
    vertex -42.81317129350349 28.059915260879215 15.61877508943767
    vertex -42.83167704122879 27.799519629727325 45.61877508943766
    vertex -42.83167704122879 27.799519629727325 15.61877508943767
  endloop
endfacet
facet normal 0.9974842088126427 -0.07088902009067705 0.0
  outer loop
    vertex -42.83167704122879 27.799519629727325 45.61877508943766
    vertex -42.81317129350349 28.059915260879215 15.61877508943767
    vertex -42.81317129350349 28.059915260879215 45.61877508943766
  endloop
endfacet
facet normal -0.0 -1.0 -0.0
  outer loop
    vertex 50.18862523950504 0.0 43.61877508943766
    vertex -49.81137476049496 0.0 3.618775089437668
    vertex 50.18862523950504 0.0 3.618775089437668
  endloop
endfacet
facet normal -0.0 -1.0 -0.0
  outer loop
    vertex -49.81137476049496 0.0 3.618775089437668
    vertex 50.18862523950504 0.0 43.61877508943766
    vertex -49.81137476049496 0.0 43.61877508943766
  endloop
endfacet
facet normal 0.18969437512382023 -0.9818431870957721 0.0
  outer loop
    vertex -43.49514699447811 27.05131670194948 45.61877508943766
    vertex -43.75145949961574 27.001796533008534 15.61877508943767
    vertex -43.49514699447811 27.05131670194948 15.61877508943767
  endloop
endfacet
facet normal 0.18969437512382023 -0.9818431870957721 0.0
  outer loop
    vertex -43.75145949961574 27.001796533008534 15.61877508943767
    vertex -43.49514699447811 27.05131670194948 45.61877508943766
    vertex -43.75145949961574 27.001796533008534 45.61877508943766
  endloop
endfacet
facet normal 0.43735041215841536 -0.8992911747509058 0.0
  outer loop
    vertex -43.26038488900345 27.1654880698793 45.61877508943766
    vertex -43.49514699447811 27.05131670194948 15.61877508943767
    vertex -43.26038488900345 27.1654880698793 15.61877508943767
  endloop
endfacet
facet normal 0.43735041215841536 -0.8992911747509058 0.0
  outer loop
    vertex -43.49514699447811 27.05131670194948 15.61877508943767
    vertex -43.26038488900345 27.1654880698793 45.61877508943766
    vertex -43.49514699447811 27.05131670194948 45.61877508943766
  endloop
endfacet
facet normal 0.8284021546602298 -0.5601337966542357 0.0
  outer loop
    vertex -42.916947569495036 27.55278640450004 15.61877508943767
    vertex -43.06317183271712 27.336530046750667 45.61877508943766
    vertex -43.06317183271712 27.336530046750667 15.61877508943767
  endloop
endfacet
facet normal 0.8284021546602298 -0.5601337966542357 0.0
  outer loop
    vertex -43.06317183271712 27.336530046750667 45.61877508943766
    vertex -42.916947569495036 27.55278640450004 15.61877508943767
    vertex -42.916947569495036 27.55278640450004 45.61877508943766
  endloop
endfacet
facet normal -0.46514193113893926 -0.885236117595943 -0.0
  outer loop
    vertex 43.843009161713304 27.061623994993557 45.61877508943767
    vertex 43.61191616242238 27.183050405220452 15.61877508943767
    vertex 43.843009161713304 27.061623994993557 15.61877508943767
  endloop
endfacet
facet normal -0.46514193113893926 -0.885236117595943 -0.0
  outer loop
    vertex 43.61191616242238 27.183050405220452 15.61877508943767
    vertex 43.843009161713304 27.061623994993557 45.61877508943767
    vertex 43.61191616242238 27.183050405220452 45.61877508943767
  endloop
endfacet
facet normal 0.5601337966542319 0.8284021546602324 0.0
  outer loop
    vertex -43.364161164995 28.894427190999917 45.61877508943766
    vertex -43.147904807245624 28.748202927777843 15.61877508943767
    vertex -43.364161164995 28.894427190999917 15.61877508943767
  endloop
endfacet
facet normal 0.5601337966542319 0.8284021546602324 0.0
  outer loop
    vertex -43.147904807245624 28.748202927777843 15.61877508943767
    vertex -43.364161164995 28.894427190999917 45.61877508943766
    vertex -43.147904807245624 28.748202927777843 45.61877508943766
  endloop
endfacet
facet normal 0.8992911747509059 0.43735041215841514 0.0
  outer loop
    vertex -42.97686283037426 28.550989871491502 15.61877508943767
    vertex -42.86269146244444 28.31622776601684 45.61877508943766
    vertex -42.86269146244444 28.31622776601684 15.61877508943767
  endloop
endfacet
facet normal 0.8992911747509059 0.43735041215841514 0.0
  outer loop
    vertex -42.86269146244444 28.31622776601684 45.61877508943766
    vertex -42.97686283037426 28.550989871491502 15.61877508943767
    vertex -42.97686283037426 28.550989871491502 45.61877508943766
  endloop
endfacet
facet normal -0.9754600188043078 0.22017663753064146 0.0
  outer loop
    vertex 43.2502492344986 28.345616077791743 45.61877508943767
    vertex 43.19277159827322 28.090969913956894 15.61877508943767
    vertex 43.19277159827322 28.090969913956894 45.61877508943767
  endloop
endfacet
facet normal -0.9754600188043078 0.22017663753064146 0.0
  outer loop
    vertex 43.19277159827322 28.090969913956894 15.61877508943767
    vertex 43.2502492344986 28.345616077791743 45.61877508943767
    vertex 43.2502492344986 28.345616077791743 15.61877508943767
  endloop
endfacet
facet normal -0.6552017413601285 0.7554539549957068 0.0
  outer loop
    vertex -44.559577688272796 28.66346995324933 45.61877508943766
    vertex -44.36236463198646 28.8345119301207 15.61877508943767
    vertex -44.559577688272796 28.66346995324933 15.61877508943767
  endloop
endfacet
facet normal -0.6552017413601285 0.7554539549957068 0.0
  outer loop
    vertex -44.36236463198646 28.8345119301207 15.61877508943767
    vertex -44.559577688272796 28.66346995324933 45.61877508943766
    vertex -44.36236463198646 28.8345119301207 45.61877508943766
  endloop
endfacet
facet normal -0.7554539549957137 -0.6552017413601204 -0.0
  outer loop
    vertex -44.645886690615654 27.449010128508498 45.61877508943766
    vertex -44.47484471374429 27.251797072222157 15.61877508943767
    vertex -44.47484471374429 27.251797072222157 45.61877508943766
  endloop
endfacet
facet normal -0.7554539549957137 -0.6552017413601204 -0.0
  outer loop
    vertex -44.47484471374429 27.251797072222157 15.61877508943767
    vertex -44.645886690615654 27.449010128508498 45.61877508943766
    vertex -44.645886690615654 27.449010128508498 15.61877508943767
  endloop
endfacet
facet normal 0.7554539549957137 0.6552017413601204 0.0
  outer loop
    vertex -43.147904807245624 28.748202927777843 15.61877508943767
    vertex -42.97686283037426 28.550989871491502 45.61877508943766
    vertex -42.97686283037426 28.550989871491502 15.61877508943767
  endloop
endfacet
facet normal 0.7554539549957137 0.6552017413601204 0.0
  outer loop
    vertex -42.97686283037426 28.550989871491502 45.61877508943766
    vertex -43.147904807245624 28.748202927777843 15.61877508943767
    vertex -43.147904807245624 28.748202927777843 45.61877508943766
  endloop
endfacet
facet normal 0.6552017413601285 -0.7554539549957068 0.0
  outer loop
    vertex -43.06317183271712 27.336530046750667 45.61877508943766
    vertex -43.26038488900345 27.1654880698793 15.61877508943767
    vertex -43.06317183271712 27.336530046750667 15.61877508943767
  endloop
endfacet
facet normal 0.6552017413601285 -0.7554539549957068 0.0
  outer loop
    vertex -43.26038488900345 27.1654880698793 15.61877508943767
    vertex -43.06317183271712 27.336530046750667 45.61877508943766
    vertex -43.26038488900345 27.1654880698793 45.61877508943766
  endloop
endfacet
facet normal -0.07088902009069911 -0.9974842088126411 -0.0
  outer loop
    vertex -43.75145949961574 27.001796533008534 45.61877508943766
    vertex -44.01185513076763 27.020302280733834 15.61877508943767
    vertex -43.75145949961574 27.001796533008534 15.61877508943767
  endloop
endfacet
facet normal -0.07088902009069911 -0.9974842088126411 -0.0
  outer loop
    vertex -44.01185513076763 27.020302280733834 15.61877508943767
    vertex -43.75145949961574 27.001796533008534 45.61877508943766
    vertex -44.01185513076763 27.020302280733834 45.61877508943766
  endloop
endfacet
facet normal 0.8454427875296558 0.5340660006161085 0.0
  outer loop
    vertex 44.95712554533225 28.63984941974146 15.61877508943767
    vertex 45.09654474824148 28.419144564149157 45.61877508943767
    vertex 45.09654474824148 28.419144564149157 15.61877508943767
  endloop
endfacet
facet normal 0.8454427875296558 0.5340660006161085 0.0
  outer loop
    vertex 45.09654474824148 28.419144564149157 45.61877508943767
    vertex 44.95712554533225 28.63984941974146 15.61877508943767
    vertex 44.95712554533225 28.63984941974146 45.61877508943767
  endloop
endfacet
facet normal -0.3266414457356348 -0.9451483301195291 -0.0
  outer loop
    vertex -44.01185513076763 27.020302280733834 45.61877508943766
    vertex -44.25858835599492 27.105572809000083 15.61877508943767
    vertex -44.01185513076763 27.020302280733834 15.61877508943767
  endloop
endfacet
facet normal -0.3266414457356348 -0.9451483301195291 -0.0
  outer loop
    vertex -44.25858835599492 27.105572809000083 15.61877508943767
    vertex -44.01185513076763 27.020302280733834 45.61877508943766
    vertex -44.25858835599492 27.105572809000083 45.61877508943766
  endloop
endfacet
facet normal 0.3266414457356348 0.9451483301195291 0.0
  outer loop
    vertex -43.61089439022228 28.979697719266166 45.61877508943766
    vertex -43.364161164995 28.894427190999917 15.61877508943767
    vertex -43.61089439022228 28.979697719266166 15.61877508943767
  endloop
endfacet
facet normal 0.3266414457356348 0.9451483301195291 0.0
  outer loop
    vertex -43.364161164995 28.894427190999917 15.61877508943767
    vertex -43.61089439022228 28.979697719266166 45.61877508943766
    vertex -43.364161164995 28.894427190999917 45.61877508943766
  endloop
endfacet
facet normal 0.0 0.0 -1.0
  outer loop
    vertex -44.79107247976113 28.200480370272675 15.61877508943767
    vertex -44.76005805854547 27.683772233983163 15.61877508943767
    vertex -44.80957822748642 27.940084739120785 15.61877508943767
  endloop
endfacet
facet normal 0.0 0.0 -1.0
  outer loop
    vertex -44.76005805854547 27.683772233983163 15.61877508943767
    vertex -44.79107247976113 28.200480370272675 15.61877508943767
    vertex -44.70580195149488 28.447213595499957 15.61877508943767
  endloop
endfacet
facet normal 0.0 0.0 -1.0
  outer loop
    vertex -44.76005805854547 27.683772233983163 15.61877508943767
    vertex -44.70580195149488 28.447213595499957 15.61877508943767
    vertex -44.645886690615654 27.449010128508498 15.61877508943767
  endloop
endfacet
facet normal 0.0 0.0 -1.0
  outer loop
    vertex -44.645886690615654 27.449010128508498 15.61877508943767
    vertex -44.70580195149488 28.447213595499957 15.61877508943767
    vertex -44.559577688272796 28.66346995324933 15.61877508943767
  endloop
endfacet
facet normal 0.0 0.0 -1.0
  outer loop
    vertex -44.645886690615654 27.449010128508498 15.61877508943767
    vertex -44.559577688272796 28.66346995324933 15.61877508943767
    vertex -44.47484471374429 27.251797072222157 15.61877508943767
  endloop
endfacet
facet normal 0.0 0.0 -1.0
  outer loop
    vertex -44.47484471374429 27.251797072222157 15.61877508943767
    vertex -44.559577688272796 28.66346995324933 15.61877508943767
    vertex -44.36236463198646 28.8345119301207 15.61877508943767
  endloop
endfacet
facet normal 0.0 0.0 -1.0
  outer loop
    vertex -44.47484471374429 27.251797072222157 15.61877508943767
    vertex -44.36236463198646 28.8345119301207 15.61877508943767
    vertex -44.25858835599492 27.105572809000083 15.61877508943767
  endloop
endfacet
facet normal 0.0 0.0 -1.0
  outer loop
    vertex -44.25858835599492 27.105572809000083 15.61877508943767
    vertex -44.36236463198646 28.8345119301207 15.61877508943767
    vertex -44.127602526511794 28.94868329805052 15.61877508943767
  endloop
endfacet
facet normal 0.0 0.0 -1.0
  outer loop
    vertex -44.25858835599492 27.105572809000083 15.61877508943767
    vertex -44.127602526511794 28.94868329805052 15.61877508943767
    vertex -44.01185513076763 27.020302280733834 15.61877508943767
  endloop
endfacet
facet normal 0.0 0.0 -1.0
  outer loop
    vertex -44.01185513076763 27.020302280733834 15.61877508943767
    vertex -44.127602526511794 28.94868329805052 15.61877508943767
    vertex -43.87129002137417 28.998203466991466 15.61877508943767
  endloop
endfacet
facet normal 0.0 0.0 -1.0
  outer loop
    vertex -44.01185513076763 27.020302280733834 15.61877508943767
    vertex -43.87129002137417 28.998203466991466 15.61877508943767
    vertex -43.75145949961574 27.001796533008534 15.61877508943767
  endloop
endfacet
facet normal 0.0 0.0 -1.0
  outer loop
    vertex -43.75145949961574 27.001796533008534 15.61877508943767
    vertex -43.87129002137417 28.998203466991466 15.61877508943767
    vertex -43.61089439022228 28.979697719266166 15.61877508943767
  endloop
endfacet
facet normal 0.0 0.0 -1.0
  outer loop
    vertex -43.75145949961574 27.001796533008534 15.61877508943767
    vertex -43.61089439022228 28.979697719266166 15.61877508943767
    vertex -43.49514699447811 27.05131670194948 15.61877508943767
  endloop
endfacet
facet normal 0.0 0.0 -1.0
  outer loop
    vertex -43.49514699447811 27.05131670194948 15.61877508943767
    vertex -43.61089439022228 28.979697719266166 15.61877508943767
    vertex -43.364161164995 28.894427190999917 15.61877508943767
  endloop
endfacet
facet normal 0.0 0.0 -1.0
  outer loop
    vertex -43.49514699447811 27.05131670194948 15.61877508943767
    vertex -43.364161164995 28.894427190999917 15.61877508943767
    vertex -43.26038488900345 27.1654880698793 15.61877508943767
  endloop
endfacet
facet normal 0.0 0.0 -1.0
  outer loop
    vertex -43.26038488900345 27.1654880698793 15.61877508943767
    vertex -43.364161164995 28.894427190999917 15.61877508943767
    vertex -43.147904807245624 28.748202927777843 15.61877508943767
  endloop
endfacet
facet normal 0.0 0.0 -1.0
  outer loop
    vertex -43.26038488900345 27.1654880698793 15.61877508943767
    vertex -43.147904807245624 28.748202927777843 15.61877508943767
    vertex -43.06317183271712 27.336530046750667 15.61877508943767
  endloop
endfacet
facet normal 0.0 0.0 -1.0
  outer loop
    vertex -43.06317183271712 27.336530046750667 15.61877508943767
    vertex -43.147904807245624 28.748202927777843 15.61877508943767
    vertex -42.97686283037426 28.550989871491502 15.61877508943767
  endloop
endfacet
facet normal 0.0 0.0 -1.0
  outer loop
    vertex -43.06317183271712 27.336530046750667 15.61877508943767
    vertex -42.97686283037426 28.550989871491502 15.61877508943767
    vertex -42.916947569495036 27.55278640450004 15.61877508943767
  endloop
endfacet
facet normal 0.0 0.0 -1.0
  outer loop
    vertex -42.916947569495036 27.55278640450004 15.61877508943767
    vertex -42.97686283037426 28.550989871491502 15.61877508943767
    vertex -42.86269146244444 28.31622776601684 15.61877508943767
  endloop
endfacet
facet normal 0.0 0.0 -1.0
  outer loop
    vertex -42.916947569495036 27.55278640450004 15.61877508943767
    vertex -42.86269146244444 28.31622776601684 15.61877508943767
    vertex -42.83167704122879 27.799519629727325 15.61877508943767
  endloop
endfacet
facet normal 0.0 0.0 -1.0
  outer loop
    vertex -42.83167704122879 27.799519629727325 15.61877508943767
    vertex -42.86269146244444 28.31622776601684 15.61877508943767
    vertex -42.81317129350349 28.059915260879215 15.61877508943767
  endloop
endfacet
facet normal -0.678408570823526 -0.7346848378952576 -0.0
  outer loop
    vertex 43.61191616242238 27.183050405220452 45.61877508943767
    vertex 43.42012493367783 27.360150580258537 15.61877508943767
    vertex 43.61191616242238 27.183050405220452 15.61877508943767
  endloop
endfacet
facet normal -0.678408570823526 -0.7346848378952576 -0.0
  outer loop
    vertex 43.42012493367783 27.360150580258537 15.61877508943767
    vertex 43.61191616242238 27.183050405220452 45.61877508943767
    vertex 43.42012493367783 27.360150580258537 45.61877508943767
  endloop
endfacet
facet normal -0.9818431870957721 -0.18969437512382015 -0.0
  outer loop
    vertex -44.80957822748642 27.940084739120785 45.61877508943766
    vertex -44.76005805854547 27.683772233983163 15.61877508943767
    vertex -44.76005805854547 27.683772233983163 45.61877508943766
  endloop
endfacet
facet normal -0.9818431870957721 -0.18969437512382015 -0.0
  outer loop
    vertex -44.76005805854547 27.683772233983163 15.61877508943767
    vertex -44.80957822748642 27.940084739120785 45.61877508943766
    vertex -44.80957822748642 27.940084739120785 15.61877508943767
  endloop
endfacet
facet normal -0.9974842088126427 0.07088902009067705 0.0
  outer loop
    vertex -44.79107247976113 28.200480370272675 45.61877508943766
    vertex -44.80957822748642 27.940084739120785 15.61877508943767
    vertex -44.80957822748642 27.940084739120785 45.61877508943766
  endloop
endfacet
facet normal -0.9974842088126427 0.07088902009067705 0.0
  outer loop
    vertex -44.80957822748642 27.940084739120785 15.61877508943767
    vertex -44.79107247976113 28.200480370272675 45.61877508943766
    vertex -44.79107247976113 28.200480370272675 15.61877508943767
  endloop
endfacet
facet normal -0.43735041215841536 0.8992911747509058 0.0
  outer loop
    vertex -44.36236463198646 28.8345119301207 45.61877508943766
    vertex -44.127602526511794 28.94868329805052 15.61877508943767
    vertex -44.36236463198646 28.8345119301207 15.61877508943767
  endloop
endfacet
facet normal -0.43735041215841536 0.8992911747509058 0.0
  outer loop
    vertex -44.127602526511794 28.94868329805052 15.61877508943767
    vertex -44.36236463198646 28.8345119301207 45.61877508943766
    vertex -44.127602526511794 28.94868329805052 45.61877508943766
  endloop
endfacet
facet normal 0.0 1.0 1.4099832412739486e-16
  outer loop
    vertex 45.18862523950505 18.999999999999993 41.61877508943767
    vertex 48.18862523950504 18.999999999999996 21.61877508943767
    vertex 45.18862523950505 18.999999999999996 21.61877508943767
  endloop
endfacet
facet normal 0.0 1.0 1.4099832412739486e-16
  outer loop
    vertex 48.18862523950504 18.999999999999996 21.61877508943767
    vertex 45.18862523950505 18.999999999999993 41.61877508943767
    vertex 48.18862523950504 18.999999999999993 41.61877508943767
  endloop
endfacet
facet normal -1.0 -0.0 -0.0
  outer loop
    vertex -39.81137476049495 30.0 45.61877508943766
    vertex -39.81137476049495 26.000000000000007 5.618775089437667
    vertex -39.81137476049495 26.000000000000007 45.61877508943766
  endloop
endfacet
facet normal -1.0 -0.0 -0.0
  outer loop
    vertex -39.81137476049495 26.000000000000007 5.618775089437667
    vertex -39.81137476049495 30.0 45.61877508943766
    vertex -39.81137476049495 30.0 5.618775089437667
  endloop
endfacet
facet normal 0.03979333006628185 -0.9992079317550657 0.0
  outer loop
    vertex 44.35850093868427 27.014534502466795 45.61877508943767
    vertex 44.09765532554815 27.004146358768182 15.61877508943767
    vertex 44.35850093868427 27.014534502466795 15.61877508943767
  endloop
endfacet
facet normal 0.03979333006628185 -0.9992079317550657 0.0
  outer loop
    vertex 44.09765532554815 27.004146358768182 15.61877508943767
    vertex 44.35850093868427 27.014534502466795 45.61877508943767
    vertex 44.09765532554815 27.004146358768182 45.61877508943767
  endloop
endfacet
facet normal -0.5601337966542319 -0.8284021546602324 -0.0
  outer loop
    vertex -44.25858835599492 27.105572809000083 45.61877508943766
    vertex -44.47484471374429 27.251797072222157 15.61877508943767
    vertex -44.25858835599492 27.105572809000083 15.61877508943767
  endloop
endfacet
facet normal -0.5601337966542319 -0.8284021546602324 -0.0
  outer loop
    vertex -44.47484471374429 27.251797072222157 15.61877508943767
    vertex -44.25858835599492 27.105572809000083 45.61877508943766
    vertex -44.47484471374429 27.251797072222157 45.61877508943766
  endloop
endfacet
facet normal -0.8852361175959385 0.46514193113894825 0.0
  outer loop
    vertex 43.37167564472549 28.57670907708266 45.61877508943767
    vertex 43.2502492344986 28.345616077791743 15.61877508943767
    vertex 43.2502492344986 28.345616077791743 45.61877508943767
  endloop
endfacet
facet normal -0.8852361175959385 0.46514193113894825 0.0
  outer loop
    vertex 43.2502492344986 28.345616077791743 15.61877508943767
    vertex 43.37167564472549 28.57670907708266 45.61877508943767
    vertex 43.37167564472549 28.57670907708266 15.61877508943767
  endloop
endfacet
facet normal 1.0 0.0 0.0
  outer loop
    vertex 40.18862523950505 30.0 5.618775089437667
    vertex 40.18862523950505 26.000000000000007 45.61877508943767
    vertex 40.18862523950505 26.000000000000007 5.618775089437667
  endloop
endfacet
facet normal 1.0 0.0 0.0
  outer loop
    vertex 40.18862523950505 26.000000000000007 45.61877508943767
    vertex 40.18862523950505 30.0 5.618775089437667
    vertex 40.18862523950505 30.0 45.61877508943767
  endloop
endfacet
facet normal -0.24253562503633383 -0.9701425001453317 -1.5038205738423784e-18
  outer loop
    vertex -39.81137476049495 30.0 45.61877508943766
    vertex -47.81137476049496 32.00000000000001 5.618775089437667
    vertex -39.81137476049495 30.0 5.618775089437667
  endloop
endfacet
facet normal -0.24253562503633383 -0.9701425001453317 -1.5038205738423784e-18
  outer loop
    vertex -47.81137476049496 32.00000000000001 5.618775089437667
    vertex -39.81137476049495 30.0 45.61877508943766
    vertex -47.81137476049496 32.00000000000001 43.61877508943766
  endloop
endfacet
facet normal -0.24253562503633383 -0.9701425001453317 -1.5038205738423784e-18
  outer loop
    vertex -47.81137476049496 32.00000000000001 43.61877508943766
    vertex -39.81137476049495 30.0 45.61877508943766
    vertex -47.81137476049496 32.00000000000001 45.61877508943766
  endloop
endfacet
facet normal -0.9451483301195251 0.32664144573564613 0.0
  outer loop
    vertex -44.70580195149488 28.447213595499957 45.61877508943766
    vertex -44.79107247976113 28.200480370272675 15.61877508943767
    vertex -44.79107247976113 28.200480370272675 45.61877508943766
  endloop
endfacet
facet normal -0.9451483301195251 0.32664144573564613 0.0
  outer loop
    vertex -44.79107247976113 28.200480370272675 15.61877508943767
    vertex -44.70580195149488 28.447213595499957 45.61877508943766
    vertex -44.70580195149488 28.447213595499957 15.61877508943767
  endloop
endfacet
facet normal -0.8454427875296558 -0.5340660006161085 -0.0
  outer loop
    vertex 43.28070573076861 27.580855435850843 45.61877508943767
    vertex 43.42012493367783 27.360150580258537 15.61877508943767
    vertex 43.42012493367783 27.360150580258537 45.61877508943767
  endloop
endfacet
facet normal -0.8454427875296558 -0.5340660006161085 -0.0
  outer loop
    vertex 43.42012493367783 27.360150580258537 15.61877508943767
    vertex 43.28070573076861 27.580855435850843 45.61877508943767
    vertex 43.28070573076861 27.580855435850843 15.61877508943767
  endloop
endfacet
facet normal 0.9548614754258941 0.2970514479807913 0.0
  outer loop
    vertex 45.09654474824148 28.419144564149157 15.61877508943767
    vertex 45.17409073703824 28.169875699179233 45.61877508943767
    vertex 45.17409073703824 28.169875699179233 15.61877508943767
  endloop
endfacet
facet normal 0.9548614754258941 0.2970514479807913 0.0
  outer loop
    vertex 45.17409073703824 28.169875699179233 45.61877508943767
    vertex 45.09654474824148 28.419144564149157 15.61877508943767
    vertex 45.09654474824148 28.419144564149157 45.61877508943767
  endloop
endfacet
facet normal 0.0 0.0 -1.0
  outer loop
    vertex 43.2502492344986 28.345616077791743 15.61877508943767
    vertex 43.20315974197184 27.830124300820767 15.61877508943767
    vertex 43.19277159827322 28.090969913956894 15.61877508943767
  endloop
endfacet
facet normal 0.0 0.0 -1.0
  outer loop
    vertex 43.20315974197184 27.830124300820767 15.61877508943767
    vertex 43.2502492344986 28.345616077791743 15.61877508943767
    vertex 43.28070573076861 27.580855435850843 15.61877508943767
  endloop
endfacet
facet normal 0.0 0.0 -1.0
  outer loop
    vertex 43.28070573076861 27.580855435850843 15.61877508943767
    vertex 43.2502492344986 28.345616077791743 15.61877508943767
    vertex 43.37167564472549 28.57670907708266 15.61877508943767
  endloop
endfacet
facet normal 0.0 0.0 -1.0
  outer loop
    vertex 43.28070573076861 27.580855435850843 15.61877508943767
    vertex 43.37167564472549 28.57670907708266 15.61877508943767
    vertex 43.42012493367783 27.360150580258537 15.61877508943767
  endloop
endfacet
facet normal 0.0 0.0 -1.0
  outer loop
    vertex 43.42012493367783 27.360150580258537 15.61877508943767
    vertex 43.37167564472549 28.57670907708266 15.61877508943767
    vertex 43.548775819763584 28.768500305827207 15.61877508943767
  endloop
endfacet
facet normal 0.0 0.0 -1.0
  outer loop
    vertex 43.42012493367783 27.360150580258537 15.61877508943767
    vertex 43.548775819763584 28.768500305827207 15.61877508943767
    vertex 43.61191616242238 27.183050405220452 15.61877508943767
  endloop
endfacet
facet normal 0.0 0.0 -1.0
  outer loop
    vertex 43.61191616242238 27.183050405220452 15.61877508943767
    vertex 43.548775819763584 28.768500305827207 15.61877508943767
    vertex 43.76948067535588 28.907919508736434 15.61877508943767
  endloop
endfacet
facet normal 0.0 0.0 -1.0
  outer loop
    vertex 43.61191616242238 27.183050405220452 15.61877508943767
    vertex 43.76948067535588 28.907919508736434 15.61877508943767
    vertex 43.843009161713304 27.061623994993557 15.61877508943767
  endloop
endfacet
facet normal 0.0 0.0 -1.0
  outer loop
    vertex 43.843009161713304 27.061623994993557 15.61877508943767
    vertex 43.76948067535588 28.907919508736434 15.61877508943767
    vertex 44.01874954032581 28.985465497533205 15.61877508943767
  endloop
endfacet
facet normal 0.0 0.0 -1.0
  outer loop
    vertex 43.843009161713304 27.061623994993557 15.61877508943767
    vertex 44.01874954032581 28.985465497533205 15.61877508943767
    vertex 44.09765532554815 27.004146358768182 15.61877508943767
  endloop
endfacet
facet normal 0.0 0.0 -1.0
  outer loop
    vertex 44.09765532554815 27.004146358768182 15.61877508943767
    vertex 44.01874954032581 28.985465497533205 15.61877508943767
    vertex 44.279595153461926 28.995853641231818 15.61877508943767
  endloop
endfacet
facet normal 0.0 0.0 -1.0
  outer loop
    vertex 44.09765532554815 27.004146358768182 15.61877508943767
    vertex 44.279595153461926 28.995853641231818 15.61877508943767
    vertex 44.35850093868427 27.014534502466795 15.61877508943767
  endloop
endfacet
facet normal 0.0 0.0 -1.0
  outer loop
    vertex 44.35850093868427 27.014534502466795 15.61877508943767
    vertex 44.279595153461926 28.995853641231818 15.61877508943767
    vertex 44.534241317296775 28.93837600500644 15.61877508943767
  endloop
endfacet
facet normal 0.0 0.0 -1.0
  outer loop
    vertex 44.35850093868427 27.014534502466795 15.61877508943767
    vertex 44.534241317296775 28.93837600500644 15.61877508943767
    vertex 44.6077698036542 27.092080491263566 15.61877508943767
  endloop
endfacet
facet normal 0.0 0.0 -1.0
  outer loop
    vertex 44.6077698036542 27.092080491263566 15.61877508943767
    vertex 44.534241317296775 28.93837600500644 15.61877508943767
    vertex 44.765334316587705 28.816949594779544 15.61877508943767
  endloop
endfacet
facet normal 0.0 0.0 -1.0
  outer loop
    vertex 44.6077698036542 27.092080491263566 15.61877508943767
    vertex 44.765334316587705 28.816949594779544 15.61877508943767
    vertex 44.828474659246496 27.23149969417279 15.61877508943767
  endloop
endfacet
facet normal 0.0 0.0 -1.0
  outer loop
    vertex 44.828474659246496 27.23149969417279 15.61877508943767
    vertex 44.765334316587705 28.816949594779544 15.61877508943767
    vertex 44.95712554533225 28.63984941974146 15.61877508943767
  endloop
endfacet
facet normal 0.0 0.0 -1.0
  outer loop
    vertex 44.828474659246496 27.23149969417279 15.61877508943767
    vertex 44.95712554533225 28.63984941974146 15.61877508943767
    vertex 45.00557483428459 27.42329092291734 15.61877508943767
  endloop
endfacet
facet normal 0.0 0.0 -1.0
  outer loop
    vertex 45.00557483428459 27.42329092291734 15.61877508943767
    vertex 44.95712554533225 28.63984941974146 15.61877508943767
    vertex 45.09654474824148 28.419144564149157 15.61877508943767
  endloop
endfacet
facet normal 0.0 0.0 -1.0
  outer loop
    vertex 45.00557483428459 27.42329092291734 15.61877508943767
    vertex 45.09654474824148 28.419144564149157 15.61877508943767
    vertex 45.12700124451148 27.654383922208257 15.61877508943767
  endloop
endfacet
facet normal 0.0 0.0 -1.0
  outer loop
    vertex 45.12700124451148 27.654383922208257 15.61877508943767
    vertex 45.09654474824148 28.419144564149157 15.61877508943767
    vertex 45.17409073703824 28.169875699179233 15.61877508943767
  endloop
endfacet
facet normal 0.0 0.0 -1.0
  outer loop
    vertex 45.12700124451148 27.654383922208257 15.61877508943767
    vertex 45.17409073703824 28.169875699179233 15.61877508943767
    vertex 45.18447888073686 27.90903008604311 15.61877508943767
  endloop
endfacet
facet normal 0.8852361175959385 -0.46514193113894825 0.0
  outer loop
    vertex 45.12700124451148 27.654383922208257 15.61877508943767
    vertex 45.00557483428459 27.42329092291734 45.61877508943767
    vertex 45.00557483428459 27.42329092291734 15.61877508943767
  endloop
endfacet
facet normal 0.8852361175959385 -0.46514193113894825 0.0
  outer loop
    vertex 45.00557483428459 27.42329092291734 45.61877508943767
    vertex 45.12700124451148 27.654383922208257 15.61877508943767
    vertex 45.12700124451148 27.654383922208257 45.61877508943767
  endloop
endfacet
facet normal -0.8284021546602298 0.5601337966542357 0.0
  outer loop
    vertex -44.559577688272796 28.66346995324933 45.61877508943766
    vertex -44.70580195149488 28.447213595499957 15.61877508943767
    vertex -44.70580195149488 28.447213595499957 45.61877508943766
  endloop
endfacet
facet normal -0.8284021546602298 0.5601337966542357 0.0
  outer loop
    vertex -44.70580195149488 28.447213595499957 15.61877508943767
    vertex -44.559577688272796 28.66346995324933 45.61877508943766
    vertex -44.559577688272796 28.66346995324933 15.61877508943767
  endloop
endfacet
facet normal 0.678408570823526 0.7346848378952576 0.0
  outer loop
    vertex 44.765334316587705 28.816949594779544 45.61877508943767
    vertex 44.95712554533225 28.63984941974146 15.61877508943767
    vertex 44.765334316587705 28.816949594779544 15.61877508943767
  endloop
endfacet
facet normal 0.678408570823526 0.7346848378952576 0.0
  outer loop
    vertex 44.95712554533225 28.63984941974146 15.61877508943767
    vertex 44.765334316587705 28.816949594779544 45.61877508943767
    vertex 44.95712554533225 28.63984941974146 45.61877508943767
  endloop
endfacet
facet normal 1.0 -1.6022536832658506e-17 -1.0638660473258496e-34
  outer loop
    vertex -47.81137476049496 24.0 5.618775089437667
    vertex -47.81137476049496 1.999999999999998 43.61877508943766
    vertex -47.81137476049496 1.999999999999998 5.618775089437667
  endloop
endfacet
facet normal 1.0 -1.6022536832658506e-17 -1.0638660473258496e-34
  outer loop
    vertex -47.81137476049496 1.999999999999998 43.61877508943766
    vertex -47.81137476049496 24.0 5.618775089437667
    vertex -47.81137476049496 24.0 43.61877508943766
  endloop
endfacet
facet normal 0.07088902009069892 0.997484208812641 0.0
  outer loop
    vertex -43.87129002137417 28.998203466991466 45.61877508943766
    vertex -43.61089439022228 28.979697719266166 15.61877508943767
    vertex -43.87129002137417 28.998203466991466 15.61877508943767
  endloop
endfacet
facet normal 0.07088902009069892 0.997484208812641 0.0
  outer loop
    vertex -43.61089439022228 28.979697719266166 15.61877508943767
    vertex -43.87129002137417 28.998203466991466 45.61877508943766
    vertex -43.61089439022228 28.979697719266166 45.61877508943766
  endloop
endfacet
facet normal 0.9992079317550657 0.03979333006628185 0.0
  outer loop
    vertex 45.17409073703824 28.169875699179233 15.61877508943767
    vertex 45.18447888073686 27.90903008604311 45.61877508943767
    vertex 45.18447888073686 27.90903008604311 15.61877508943767
  endloop
endfacet
facet normal 0.9992079317550657 0.03979333006628185 0.0
  outer loop
    vertex 45.18447888073686 27.90903008604311 45.61877508943767
    vertex 45.17409073703824 28.169875699179233 15.61877508943767
    vertex 45.17409073703824 28.169875699179233 45.61877508943767
  endloop
endfacet
facet normal 0.975460018804309 -0.22017663753063688 0.0
  outer loop
    vertex 45.18447888073686 27.90903008604311 15.61877508943767
    vertex 45.12700124451148 27.654383922208257 45.61877508943767
    vertex 45.12700124451148 27.654383922208257 15.61877508943767
  endloop
endfacet
facet normal 0.975460018804309 -0.22017663753063688 0.0
  outer loop
    vertex 45.12700124451148 27.654383922208257 45.61877508943767
    vertex 45.18447888073686 27.90903008604311 15.61877508943767
    vertex 45.18447888073686 27.90903008604311 45.61877508943767
  endloop
endfacet
facet normal -0.24253562503633377 0.9701425001453317 -6.678304903939296e-34
  outer loop
    vertex -47.81137476049496 24.0 43.61877508943766
    vertex -39.81137476049495 26.000000000000007 5.618775089437667
    vertex -47.81137476049496 24.0 5.618775089437667
  endloop
endfacet
facet normal -0.24253562503633377 0.9701425001453317 -6.678304903939296e-34
  outer loop
    vertex -39.81137476049495 26.000000000000007 5.618775089437667
    vertex -47.81137476049496 24.0 43.61877508943766
    vertex -39.81137476049495 26.000000000000007 45.61877508943766
  endloop
endfacet
facet normal -0.24253562503633377 0.9701425001453317 -6.678304903939296e-34
  outer loop
    vertex -39.81137476049495 26.000000000000007 45.61877508943766
    vertex -47.81137476049496 24.0 43.61877508943766
    vertex -47.81137476049496 24.0 45.61877508943766
  endloop
endfacet
facet normal -0.18969437512382073 0.981843187095772 0.0
  outer loop
    vertex -44.127602526511794 28.94868329805052 45.61877508943766
    vertex -43.87129002137417 28.998203466991466 15.61877508943767
    vertex -44.127602526511794 28.94868329805052 15.61877508943767
  endloop
endfacet
facet normal -0.18969437512382073 0.981843187095772 0.0
  outer loop
    vertex -43.87129002137417 28.998203466991466 15.61877508943767
    vertex -44.127602526511794 28.94868329805052 45.61877508943766
    vertex -43.87129002137417 28.998203466991466 45.61877508943766
  endloop
endfacet
facet normal -0.9548614754258941 -0.2970514479807913 -0.0
  outer loop
    vertex 43.20315974197184 27.830124300820767 45.61877508943767
    vertex 43.28070573076861 27.580855435850843 15.61877508943767
    vertex 43.28070573076861 27.580855435850843 45.61877508943767
  endloop
endfacet
facet normal -0.9548614754258941 -0.2970514479807913 -0.0
  outer loop
    vertex 43.28070573076861 27.580855435850843 15.61877508943767
    vertex 43.20315974197184 27.830124300820767 45.61877508943767
    vertex 43.20315974197184 27.830124300820767 15.61877508943767
  endloop
endfacet
facet normal -0.5340660006161183 0.8454427875296497 0.0
  outer loop
    vertex 43.548775819763584 28.768500305827207 45.61877508943767
    vertex 43.76948067535588 28.907919508736434 15.61877508943767
    vertex 43.548775819763584 28.768500305827207 15.61877508943767
  endloop
endfacet
facet normal -0.5340660006161183 0.8454427875296497 0.0
  outer loop
    vertex 43.76948067535588 28.907919508736434 15.61877508943767
    vertex 43.548775819763584 28.768500305827207 45.61877508943767
    vertex 43.76948067535588 28.907919508736434 45.61877508943767
  endloop
endfacet
facet normal -0.7346848378952469 0.6784085708235377 0.0
  outer loop
    vertex 43.548775819763584 28.768500305827207 45.61877508943767
    vertex 43.37167564472549 28.57670907708266 15.61877508943767
    vertex 43.37167564472549 28.57670907708266 45.61877508943767
  endloop
endfacet
facet normal -0.7346848378952469 0.6784085708235377 0.0
  outer loop
    vertex 43.37167564472549 28.57670907708266 15.61877508943767
    vertex 43.548775819763584 28.768500305827207 45.61877508943767
    vertex 43.548775819763584 28.768500305827207 15.61877508943767
  endloop
endfacet
facet normal 0.24253562503633394 -0.9701425001453317 5.342643923151439e-33
  outer loop
    vertex 48.18862523950504 32.00000000000001 43.61877508943766
    vertex 40.18862523950505 30.0 5.618775089437667
    vertex 48.18862523950504 32.00000000000001 5.618775089437667
  endloop
endfacet
facet normal 0.24253562503633394 -0.9701425001453317 5.342643923151439e-33
  outer loop
    vertex 40.18862523950505 30.0 5.618775089437667
    vertex 48.18862523950504 32.00000000000001 43.61877508943766
    vertex 40.18862523950505 30.0 45.61877508943767
  endloop
endfacet
facet normal 0.24253562503633394 -0.9701425001453317 5.342643923151439e-33
  outer loop
    vertex 40.18862523950505 30.0 45.61877508943767
    vertex 48.18862523950504 32.00000000000001 43.61877508943766
    vertex 48.18862523950504 32.00000000000001 45.61877508943767
  endloop
endfacet
facet normal 0.46514193113893926 0.885236117595943 0.0
  outer loop
    vertex 44.534241317296775 28.93837600500644 45.61877508943767
    vertex 44.765334316587705 28.816949594779544 15.61877508943767
    vertex 44.534241317296775 28.93837600500644 15.61877508943767
  endloop
endfacet
facet normal 0.46514193113893926 0.885236117595943 0.0
  outer loop
    vertex 44.765334316587705 28.816949594779544 15.61877508943767
    vertex 44.534241317296775 28.93837600500644 45.61877508943767
    vertex 44.765334316587705 28.816949594779544 45.61877508943767
  endloop
endfacet
facet normal 0.5340660006161183 -0.8454427875296497 0.0
  outer loop
    vertex 44.828474659246496 27.23149969417279 45.61877508943767
    vertex 44.6077698036542 27.092080491263566 15.61877508943767
    vertex 44.828474659246496 27.23149969417279 15.61877508943767
  endloop
endfacet
facet normal 0.5340660006161183 -0.8454427875296497 0.0
  outer loop
    vertex 44.6077698036542 27.092080491263566 15.61877508943767
    vertex 44.828474659246496 27.23149969417279 45.61877508943767
    vertex 44.6077698036542 27.092080491263566 45.61877508943767
  endloop
endfacet
facet normal 0.22017663753064146 0.9754600188043078 0.0
  outer loop
    vertex 44.279595153461926 28.995853641231818 45.61877508943767
    vertex 44.534241317296775 28.93837600500644 15.61877508943767
    vertex 44.279595153461926 28.995853641231818 15.61877508943767
  endloop
endfacet
facet normal 0.22017663753064146 0.9754600188043078 0.0
  outer loop
    vertex 44.534241317296775 28.93837600500644 15.61877508943767
    vertex 44.279595153461926 28.995853641231818 45.61877508943767
    vertex 44.534241317296775 28.93837600500644 45.61877508943767
  endloop
endfacet
facet normal 0.24253562503633394 0.9701425001453317 5.342643923151439e-33
  outer loop
    vertex 40.18862523950505 26.000000000000007 45.61877508943767
    vertex 48.18862523950504 24.0 5.618775089437667
    vertex 40.18862523950505 26.000000000000007 5.618775089437667
  endloop
endfacet
facet normal 0.24253562503633394 0.9701425001453317 5.342643923151439e-33
  outer loop
    vertex 48.18862523950504 24.0 5.618775089437667
    vertex 40.18862523950505 26.000000000000007 45.61877508943767
    vertex 48.18862523950504 24.0 43.61877508943766
  endloop
endfacet
facet normal 0.24253562503633394 0.9701425001453317 5.342643923151439e-33
  outer loop
    vertex 48.18862523950504 24.0 43.61877508943766
    vertex 40.18862523950505 26.000000000000007 45.61877508943767
    vertex 48.18862523950504 24.0 45.61877508943767
  endloop
endfacet
facet normal 0.7346848378952469 -0.6784085708235377 0.0
  outer loop
    vertex 45.00557483428459 27.42329092291734 15.61877508943767
    vertex 44.828474659246496 27.23149969417279 45.61877508943767
    vertex 44.828474659246496 27.23149969417279 15.61877508943767
  endloop
endfacet
facet normal 0.7346848378952469 -0.6784085708235377 0.0
  outer loop
    vertex 44.828474659246496 27.23149969417279 45.61877508943767
    vertex 45.00557483428459 27.42329092291734 15.61877508943767
    vertex 45.00557483428459 27.42329092291734 45.61877508943767
  endloop
endfacet
facet normal -0.9992079317550657 -0.03979333006628099 -0.0
  outer loop
    vertex 43.19277159827322 28.090969913956894 45.61877508943767
    vertex 43.20315974197184 27.830124300820767 15.61877508943767
    vertex 43.20315974197184 27.830124300820767 45.61877508943767
  endloop
endfacet
facet normal -0.9992079317550657 -0.03979333006628099 -0.0
  outer loop
    vertex 43.20315974197184 27.830124300820767 15.61877508943767
    vertex 43.19277159827322 28.090969913956894 45.61877508943767
    vertex 43.19277159827322 28.090969913956894 15.61877508943767
  endloop
endfacet
facet normal -0.2970514479807913 0.9548614754258941 0.0
  outer loop
    vertex 43.76948067535588 28.907919508736434 45.61877508943767
    vertex 44.01874954032581 28.985465497533205 15.61877508943767
    vertex 43.76948067535588 28.907919508736434 15.61877508943767
  endloop
endfacet
facet normal -0.2970514479807913 0.9548614754258941 0.0
  outer loop
    vertex 44.01874954032581 28.985465497533205 15.61877508943767
    vertex 43.76948067535588 28.907919508736434 45.61877508943767
    vertex 44.01874954032581 28.985465497533205 45.61877508943767
  endloop
endfacet
facet normal -1.0 0.0 0.0
  outer loop
    vertex 45.18862523950505 1.9999999999999978 41.61877508943767
    vertex 45.18862523950505 3.999999999999999 39.61877508943767
    vertex 45.18862523950505 1.9999999999999978 21.61877508943767
  endloop
endfacet
facet normal -1.0 0.0 0.0
  outer loop
    vertex 45.18862523950505 3.999999999999999 39.61877508943767
    vertex 45.18862523950505 1.9999999999999978 41.61877508943767
    vertex 45.18862523950505 18.999999999999993 41.61877508943767
  endloop
endfacet
facet normal -1.0 0.0 0.0
  outer loop
    vertex 45.18862523950505 3.999999999999999 39.61877508943767
    vertex 45.18862523950505 18.999999999999993 41.61877508943767
    vertex 45.18862523950505 16.999999999999996 39.61877508943767
  endloop
endfacet
facet normal -1.0 0.0 0.0
  outer loop
    vertex 45.18862523950505 16.999999999999996 39.61877508943767
    vertex 45.18862523950505 18.999999999999993 41.61877508943767
    vertex 45.18862523950505 16.999999999999996 23.61877508943767
  endloop
endfacet
facet normal -1.0 0.0 0.0
  outer loop
    vertex 45.18862523950505 1.9999999999999978 21.61877508943767
    vertex 45.18862523950505 3.999999999999999 23.61877508943767
    vertex 45.18862523950505 18.999999999999996 21.61877508943767
  endloop
endfacet
facet normal -1.0 0.0 0.0
  outer loop
    vertex 45.18862523950505 3.999999999999999 23.61877508943767
    vertex 45.18862523950505 1.9999999999999978 21.61877508943767
    vertex 45.18862523950505 3.999999999999999 39.61877508943767
  endloop
endfacet
facet normal -1.0 0.0 0.0
  outer loop
    vertex 45.18862523950505 18.999999999999996 21.61877508943767
    vertex 45.18862523950505 3.999999999999999 23.61877508943767
    vertex 45.18862523950505 16.999999999999996 23.61877508943767
  endloop
endfacet
facet normal -1.0 0.0 0.0
  outer loop
    vertex 45.18862523950505 18.999999999999996 21.61877508943767
    vertex 45.18862523950505 16.999999999999996 23.61877508943767
    vertex 45.18862523950505 18.999999999999993 41.61877508943767
  endloop
endfacet
facet normal 1.0 0.0 0.0
  outer loop
    vertex -47.81137476049496 32.00000000000001 43.61877508943766
    vertex -47.81137476049496 24.0 45.61877508943766
    vertex -47.81137476049496 24.0 43.61877508943766
  endloop
endfacet
facet normal 1.0 0.0 0.0
  outer loop
    vertex -47.81137476049496 24.0 45.61877508943766
    vertex -47.81137476049496 32.00000000000001 43.61877508943766
    vertex -47.81137476049496 32.00000000000001 45.61877508943766
  endloop
endfacet
facet normal -1.0 0.0 0.0
  outer loop
    vertex 48.18862523950504 54.0 43.61877508943766
    vertex 48.18862523950504 32.00000000000001 5.618775089437667
    vertex 48.18862523950504 32.00000000000001 43.61877508943766
  endloop
endfacet
facet normal -1.0 0.0 0.0
  outer loop
    vertex 48.18862523950504 32.00000000000001 5.618775089437667
    vertex 48.18862523950504 54.0 43.61877508943766
    vertex 48.18862523950504 39.99999999999999 17.61877508943767
  endloop
endfacet
facet normal -1.0 0.0 0.0
  outer loop
    vertex 48.18862523950504 39.99999999999999 17.61877508943767
    vertex 48.18862523950504 54.0 43.61877508943766
    vertex 48.18862523950504 51.0 17.61877508943767
  endloop
endfacet
facet normal -1.0 0.0 0.0
  outer loop
    vertex 48.18862523950504 51.0 17.61877508943767
    vertex 48.18862523950504 54.0 43.61877508943766
    vertex 48.18862523950504 51.0 9.618775089437667
  endloop
endfacet
facet normal -1.0 0.0 0.0
  outer loop
    vertex 48.18862523950504 32.00000000000001 5.618775089437667
    vertex 48.18862523950504 39.99999999999999 9.618775089437667
    vertex 48.18862523950504 54.0 5.618775089437667
  endloop
endfacet
facet normal -1.0 0.0 0.0
  outer loop
    vertex 48.18862523950504 39.99999999999999 9.618775089437667
    vertex 48.18862523950504 32.00000000000001 5.618775089437667
    vertex 48.18862523950504 39.99999999999999 17.61877508943767
  endloop
endfacet
facet normal -1.0 0.0 0.0
  outer loop
    vertex 48.18862523950504 54.0 5.618775089437667
    vertex 48.18862523950504 39.99999999999999 9.618775089437667
    vertex 48.18862523950504 51.0 9.618775089437667
  endloop
endfacet
facet normal -1.0 0.0 0.0
  outer loop
    vertex 48.18862523950504 54.0 5.618775089437667
    vertex 48.18862523950504 51.0 9.618775089437667
    vertex 48.18862523950504 54.0 43.61877508943766
  endloop
endfacet
facet normal 0.0 0.0 1.0
  outer loop
    vertex 48.18862523950504 1.9999999999999978 41.61877508943767
    vertex 45.18862523950505 18.999999999999993 41.61877508943767
    vertex 45.18862523950505 1.9999999999999978 41.61877508943767
  endloop
endfacet
facet normal 0.0 0.0 1.0
  outer loop
    vertex 45.18862523950505 18.999999999999993 41.61877508943767
    vertex 48.18862523950504 1.9999999999999978 41.61877508943767
    vertex 48.18862523950504 18.999999999999993 41.61877508943767
  endloop
endfacet
facet normal -0.0 -0.0 -1.0
  outer loop
    vertex 48.18862523950504 18.999999999999996 21.61877508943767
    vertex 45.18862523950505 1.9999999999999978 21.61877508943767
    vertex 45.18862523950505 18.999999999999996 21.61877508943767
  endloop
endfacet
facet normal -0.0 -0.0 -1.0
  outer loop
    vertex 45.18862523950505 1.9999999999999978 21.61877508943767
    vertex 48.18862523950504 18.999999999999996 21.61877508943767
    vertex 48.18862523950504 1.9999999999999978 21.61877508943767
  endloop
endfacet
facet normal 0.2970514479807913 -0.9548614754258941 0.0
  outer loop
    vertex 44.6077698036542 27.092080491263566 45.61877508943767
    vertex 44.35850093868427 27.014534502466795 15.61877508943767
    vertex 44.6077698036542 27.092080491263566 15.61877508943767
  endloop
endfacet
facet normal 0.2970514479807913 -0.9548614754258941 0.0
  outer loop
    vertex 44.35850093868427 27.014534502466795 15.61877508943767
    vertex 44.6077698036542 27.092080491263566 45.61877508943767
    vertex 44.35850093868427 27.014534502466795 45.61877508943767
  endloop
endfacet
facet normal -0.22017663753064146 -0.9754600188043078 -0.0
  outer loop
    vertex 44.09765532554815 27.004146358768182 45.61877508943767
    vertex 43.843009161713304 27.061623994993557 15.61877508943767
    vertex 44.09765532554815 27.004146358768182 15.61877508943767
  endloop
endfacet
facet normal -0.22017663753064146 -0.9754600188043078 -0.0
  outer loop
    vertex 43.843009161713304 27.061623994993557 15.61877508943767
    vertex 44.09765532554815 27.004146358768182 45.61877508943767
    vertex 43.843009161713304 27.061623994993557 45.61877508943767
  endloop
endfacet
facet normal 0.0 0.0 -1.0
  outer loop
    vertex -47.81137476049496 32.00000000000001 45.61877508943766
    vertex -44.559577688272796 28.66346995324933 45.61877508943766
    vertex -47.81137476049496 24.0 45.61877508943766
  endloop
endfacet
facet normal 0.0 0.0 -1.0
  outer loop
    vertex -44.559577688272796 28.66346995324933 45.61877508943766
    vertex -47.81137476049496 32.00000000000001 45.61877508943766
    vertex -44.36236463198646 28.8345119301207 45.61877508943766
  endloop
endfacet
facet normal 0.0 0.0 -1.0
  outer loop
    vertex -44.36236463198646 28.8345119301207 45.61877508943766
    vertex -47.81137476049496 32.00000000000001 45.61877508943766
    vertex -44.127602526511794 28.94868329805052 45.61877508943766
  endloop
endfacet
facet normal 0.0 0.0 -1.0
  outer loop
    vertex -44.127602526511794 28.94868329805052 45.61877508943766
    vertex -47.81137476049496 32.00000000000001 45.61877508943766
    vertex -39.81137476049495 30.0 45.61877508943766
  endloop
endfacet
facet normal 0.0 0.0 -1.0
  outer loop
    vertex -47.81137476049496 24.0 45.61877508943766
    vertex -44.559577688272796 28.66346995324933 45.61877508943766
    vertex -44.70580195149488 28.447213595499957 45.61877508943766
  endloop
endfacet
facet normal 0.0 0.0 -1.0
  outer loop
    vertex -47.81137476049496 24.0 45.61877508943766
    vertex -44.70580195149488 28.447213595499957 45.61877508943766
    vertex -44.79107247976113 28.200480370272675 45.61877508943766
  endloop
endfacet
facet normal 0.0 0.0 -1.0
  outer loop
    vertex -47.81137476049496 24.0 45.61877508943766
    vertex -44.79107247976113 28.200480370272675 45.61877508943766
    vertex -44.80957822748642 27.940084739120785 45.61877508943766
  endloop
endfacet
facet normal 0.0 0.0 -1.0
  outer loop
    vertex -44.127602526511794 28.94868329805052 45.61877508943766
    vertex -39.81137476049495 30.0 45.61877508943766
    vertex -43.87129002137417 28.998203466991466 45.61877508943766
  endloop
endfacet
facet normal 0.0 0.0 -1.0
  outer loop
    vertex -43.87129002137417 28.998203466991466 45.61877508943766
    vertex -39.81137476049495 30.0 45.61877508943766
    vertex -43.61089439022228 28.979697719266166 45.61877508943766
  endloop
endfacet
facet normal 0.0 0.0 -1.0
  outer loop
    vertex -43.61089439022228 28.979697719266166 45.61877508943766
    vertex -39.81137476049495 30.0 45.61877508943766
    vertex -43.364161164995 28.894427190999917 45.61877508943766
  endloop
endfacet
facet normal 0.0 0.0 -1.0
  outer loop
    vertex -43.364161164995 28.894427190999917 45.61877508943766
    vertex -39.81137476049495 30.0 45.61877508943766
    vertex -43.147904807245624 28.748202927777843 45.61877508943766
  endloop
endfacet
facet normal 0.0 0.0 -1.0
  outer loop
    vertex -43.147904807245624 28.748202927777843 45.61877508943766
    vertex -39.81137476049495 30.0 45.61877508943766
    vertex -42.97686283037426 28.550989871491502 45.61877508943766
  endloop
endfacet
facet normal 0.0 0.0 -1.0
  outer loop
    vertex -42.97686283037426 28.550989871491502 45.61877508943766
    vertex -39.81137476049495 30.0 45.61877508943766
    vertex -42.86269146244444 28.31622776601684 45.61877508943766
  endloop
endfacet
facet normal 0.0 0.0 -1.0
  outer loop
    vertex -42.86269146244444 28.31622776601684 45.61877508943766
    vertex -39.81137476049495 30.0 45.61877508943766
    vertex -42.81317129350349 28.059915260879215 45.61877508943766
  endloop
endfacet
facet normal 0.0 0.0 -1.0
  outer loop
    vertex -47.81137476049496 24.0 45.61877508943766
    vertex -44.01185513076763 27.020302280733834 45.61877508943766
    vertex -39.81137476049495 26.000000000000007 45.61877508943766
  endloop
endfacet
facet normal 0.0 0.0 -1.0
  outer loop
    vertex -44.01185513076763 27.020302280733834 45.61877508943766
    vertex -47.81137476049496 24.0 45.61877508943766
    vertex -44.25858835599492 27.105572809000083 45.61877508943766
  endloop
endfacet
facet normal 0.0 0.0 -1.0
  outer loop
    vertex -44.25858835599492 27.105572809000083 45.61877508943766
    vertex -47.81137476049496 24.0 45.61877508943766
    vertex -44.47484471374429 27.251797072222157 45.61877508943766
  endloop
endfacet
facet normal 0.0 0.0 -1.0
  outer loop
    vertex -44.47484471374429 27.251797072222157 45.61877508943766
    vertex -47.81137476049496 24.0 45.61877508943766
    vertex -44.645886690615654 27.449010128508498 45.61877508943766
  endloop
endfacet
facet normal 0.0 0.0 -1.0
  outer loop
    vertex -44.645886690615654 27.449010128508498 45.61877508943766
    vertex -47.81137476049496 24.0 45.61877508943766
    vertex -44.76005805854547 27.683772233983163 45.61877508943766
  endloop
endfacet
facet normal 0.0 0.0 -1.0
  outer loop
    vertex -44.76005805854547 27.683772233983163 45.61877508943766
    vertex -47.81137476049496 24.0 45.61877508943766
    vertex -44.80957822748642 27.940084739120785 45.61877508943766
  endloop
endfacet
facet normal 0.0 0.0 -1.0
  outer loop
    vertex -39.81137476049495 26.000000000000007 45.61877508943766
    vertex -44.01185513076763 27.020302280733834 45.61877508943766
    vertex -43.75145949961574 27.001796533008534 45.61877508943766
  endloop
endfacet
facet normal 0.0 0.0 -1.0
  outer loop
    vertex -39.81137476049495 26.000000000000007 45.61877508943766
    vertex -43.75145949961574 27.001796533008534 45.61877508943766
    vertex -43.49514699447811 27.05131670194948 45.61877508943766
  endloop
endfacet
facet normal 0.0 0.0 -1.0
  outer loop
    vertex -39.81137476049495 26.000000000000007 45.61877508943766
    vertex -43.49514699447811 27.05131670194948 45.61877508943766
    vertex -43.26038488900345 27.1654880698793 45.61877508943766
  endloop
endfacet
facet normal 0.0 0.0 -1.0
  outer loop
    vertex -39.81137476049495 26.000000000000007 45.61877508943766
    vertex -43.26038488900345 27.1654880698793 45.61877508943766
    vertex -43.06317183271712 27.336530046750667 45.61877508943766
  endloop
endfacet
facet normal 0.0 0.0 -1.0
  outer loop
    vertex -39.81137476049495 26.000000000000007 45.61877508943766
    vertex -43.06317183271712 27.336530046750667 45.61877508943766
    vertex -42.916947569495036 27.55278640450004 45.61877508943766
  endloop
endfacet
facet normal 0.0 0.0 -1.0
  outer loop
    vertex -39.81137476049495 26.000000000000007 45.61877508943766
    vertex -42.916947569495036 27.55278640450004 45.61877508943766
    vertex -42.83167704122879 27.799519629727325 45.61877508943766
  endloop
endfacet
facet normal 0.0 0.0 -1.0
  outer loop
    vertex -39.81137476049495 26.000000000000007 45.61877508943766
    vertex -42.83167704122879 27.799519629727325 45.61877508943766
    vertex -42.81317129350349 28.059915260879215 45.61877508943766
  endloop
endfacet
facet normal 0.0 0.0 -1.0
  outer loop
    vertex -39.81137476049495 26.000000000000007 45.61877508943766
    vertex -42.81317129350349 28.059915260879215 45.61877508943766
    vertex -39.81137476049495 30.0 45.61877508943766
  endloop
endfacet
facet normal -0.03979333006628185 0.9992079317550657 0.0
  outer loop
    vertex 44.01874954032581 28.985465497533205 45.61877508943767
    vertex 44.279595153461926 28.995853641231818 15.61877508943767
    vertex 44.01874954032581 28.985465497533205 15.61877508943767
  endloop
endfacet
facet normal -0.03979333006628185 0.9992079317550657 0.0
  outer loop
    vertex 44.279595153461926 28.995853641231818 15.61877508943767
    vertex 44.01874954032581 28.985465497533205 45.61877508943767
    vertex 44.279595153461926 28.995853641231818 45.61877508943767
  endloop
endfacet
facet normal 0.0 1.0 0.0
  outer loop
    vertex 48.18862523950504 39.99999999999999 17.61877508943767
    vertex 50.18862523950504 39.99999999999999 9.618775089437667
    vertex 48.18862523950504 39.99999999999999 9.618775089437667
  endloop
endfacet
facet normal 0.0 1.0 0.0
  outer loop
    vertex 50.18862523950504 39.99999999999999 9.618775089437667
    vertex 48.18862523950504 39.99999999999999 17.61877508943767
    vertex 50.18862523950504 39.99999999999999 17.61877508943767
  endloop
endfacet
facet normal -0.0 -0.0 -1.0
  outer loop
    vertex 50.18862523950504 51.0 17.61877508943767
    vertex 48.18862523950504 39.99999999999999 17.61877508943767
    vertex 48.18862523950504 51.0 17.61877508943767
  endloop
endfacet
facet normal -0.0 -0.0 -1.0
  outer loop
    vertex 48.18862523950504 39.99999999999999 17.61877508943767
    vertex 50.18862523950504 51.0 17.61877508943767
    vertex 50.18862523950504 39.99999999999999 17.61877508943767
  endloop
endfacet
facet normal 0.0 1.0 0.0
  outer loop
    vertex -49.81137476049496 56.0 43.61877508943766
    vertex 50.18862523950504 56.0 3.618775089437668
    vertex -49.81137476049496 56.0 3.618775089437668
  endloop
endfacet
facet normal 0.0 1.0 0.0
  outer loop
    vertex 50.18862523950504 56.0 3.618775089437668
    vertex -49.81137476049496 56.0 43.61877508943766
    vertex 50.18862523950504 56.0 43.61877508943766
  endloop
endfacet
facet normal 0.0 0.0 -1.0
  outer loop
    vertex 48.18862523950504 54.0 5.618775089437667
    vertex -47.81137476049496 32.00000000000001 5.618775089437667
    vertex -47.81137476049496 54.0 5.618775089437667
  endloop
endfacet
facet normal 0.0 0.0 -1.0
  outer loop
    vertex -47.81137476049496 32.00000000000001 5.618775089437667
    vertex 48.18862523950504 54.0 5.618775089437667
    vertex -39.81137476049495 30.0 5.618775089437667
  endloop
endfacet
facet normal 0.0 0.0 -1.0
  outer loop
    vertex -39.81137476049495 30.0 5.618775089437667
    vertex 48.18862523950504 54.0 5.618775089437667
    vertex -39.81137476049495 26.000000000000007 5.618775089437667
  endloop
endfacet
facet normal 0.0 0.0 -1.0
  outer loop
    vertex -39.81137476049495 26.000000000000007 5.618775089437667
    vertex 48.18862523950504 54.0 5.618775089437667
    vertex 40.18862523950505 30.0 5.618775089437667
  endloop
endfacet
facet normal 0.0 0.0 -1.0
  outer loop
    vertex 40.18862523950505 30.0 5.618775089437667
    vertex 48.18862523950504 54.0 5.618775089437667
    vertex 48.18862523950504 32.00000000000001 5.618775089437667
  endloop
endfacet
facet normal 0.0 0.0 -1.0
  outer loop
    vertex -39.81137476049495 26.000000000000007 5.618775089437667
    vertex -47.81137476049496 1.999999999999998 5.618775089437667
    vertex -47.81137476049496 24.0 5.618775089437667
  endloop
endfacet
facet normal 0.0 0.0 -1.0
  outer loop
    vertex -47.81137476049496 1.999999999999998 5.618775089437667
    vertex -39.81137476049495 26.000000000000007 5.618775089437667
    vertex 48.18862523950504 1.9999999999999978 5.618775089437667
  endloop
endfacet
facet normal 0.0 0.0 -1.0
  outer loop
    vertex 48.18862523950504 1.9999999999999978 5.618775089437667
    vertex -39.81137476049495 26.000000000000007 5.618775089437667
    vertex 40.18862523950505 26.000000000000007 5.618775089437667
  endloop
endfacet
facet normal 0.0 0.0 -1.0
  outer loop
    vertex 40.18862523950505 26.000000000000007 5.618775089437667
    vertex -39.81137476049495 26.000000000000007 5.618775089437667
    vertex 40.18862523950505 30.0 5.618775089437667
  endloop
endfacet
facet normal 0.0 0.0 -1.0
  outer loop
    vertex 48.18862523950504 1.9999999999999978 5.618775089437667
    vertex 40.18862523950505 26.000000000000007 5.618775089437667
    vertex 48.18862523950504 24.0 5.618775089437667
  endloop
endfacet
facet normal 0.0 -1.0 0.0
  outer loop
    vertex 50.18862523950504 51.0 17.61877508943767
    vertex 48.18862523950504 51.0 9.618775089437667
    vertex 50.18862523950504 51.0 9.618775089437667
  endloop
endfacet
facet normal 0.0 -1.0 0.0
  outer loop
    vertex 48.18862523950504 51.0 9.618775089437667
    vertex 50.18862523950504 51.0 17.61877508943767
    vertex 48.18862523950504 51.0 17.61877508943767
  endloop
endfacet
endsolid Caixa Med Temp Umid 2
